<svg id="Layer_1" data-name="Layer 1" xmlns="http://www.w3.org/2000/svg" viewBox="0 0 595.28 337.78"><defs><style>.cls-1{fill:#38003c;}</style></defs><title>logo</title><path class="cls-1" d="M71.6,85.73c0,.79.1,1.37.1,2,0,5.62,0,11.24,0,16.86,0,2.56,1.48,4.08,3.85,4a3.22,3.22,0,0,0,3.4-3.32c.05-1.38,0-2.78,0-4.17V99.51a40.61,40.61,0,0,1,9.42-.18c0,.55.1,1.13.1,1.72,0,2.89,0,5.78,0,8.68A4.18,4.18,0,0,0,91.79,114a3.91,3.91,0,0,0,4.31-1.72,3.62,3.62,0,0,0-.18-4.62,16.64,16.64,0,0,0-1.21-1.33,9,9,0,0,1,5.81-.26,4.38,4.38,0,0,1,3,3.72A15.31,15.31,0,0,1,99.59,123a19.89,19.89,0,0,1-8.77,5.56l-1.57.55v9.26c.38.27.76.5,1.11.78a4.48,4.48,0,0,1,1.81,3.43c.13,3.49.24,7,.34,10.48.12,4.17.22,8.33.34,12.5.1,3.33.2,6.66.34,10,.16,4.21.37,8.42.53,12.64.07,1.61.07,3.22.11,4.83.12,4.55.27,9.11.34,13.66,0,3.15-1.79,5-4.93,5q-5.42,0-10.85,0c-3,0-4.9-1.89-4.85-4.92.08-4.78.27-9.55.41-14.33q.18-6,.35-12c.12-4.38.22-8.77.34-13.16.1-3.27.21-6.55.33-9.82.18-5,.36-10,.58-15a4.08,4.08,0,0,1,2-3.48,1.86,1.86,0,0,0,1-1.89c0-2.34,0-4.68,0-7a1.35,1.35,0,0,0-1-1.52c-7.16-2.63-11.62-7.88-13.81-15a26.2,26.2,0,0,1,3.4-23.39,35.77,35.77,0,0,1,3.53-4A4.65,4.65,0,0,1,71.6,85.73ZM83.85,195a5,5,0,0,0-5,5.09,5,5,0,0,0,10,0A5,5,0,0,0,83.85,195Z"/><path class="cls-1" d="M245.26,142.51h17.85v25.61l.43.14,1-1.11a16.6,16.6,0,0,1,11.81-5.56A18.81,18.81,0,0,1,289.91,166a19.05,19.05,0,0,1,5.81,8.92,36.79,36.79,0,0,1-.5,24.86,18.53,18.53,0,0,1-17.68,12c-4-.07-7.6-.88-10.75-3.35-1.19-.93-2.31-1.95-3.49-3-.06,1.36-.13,3-.2,4.63-1.85.65-15,.78-17.68.21C244.93,208.59,244.75,146.28,245.26,142.51ZM279,186.21a40.42,40.42,0,0,0-1.15-6,7.07,7.07,0,0,0-7.33-5,7.32,7.32,0,0,0-6.9,5.34,19.28,19.28,0,0,0-.06,11.76A7.6,7.6,0,0,0,278.2,192,57.19,57.19,0,0,0,279,186.21Z"/><path class="cls-1" d="M239.25,210.6c-6,0-11.9.06-18.07,0V183.9c0-.72,0-1.45,0-2.16-.22-3.1-1.67-4.91-4.46-5.42-2.2-.42-5.66.3-6.88,3.17a12.36,12.36,0,0,0-1,4.61c-.09,7.84,0,15.67,0,23.51v2.5c-2.31.68-16.08.67-18.18,0V162.74c6-.11,11.91,0,18.06,0v6.47c.78-.84,1.14-1.22,1.48-1.61a16.1,16.1,0,0,1,10.23-5.73c5.58-.77,10.9-.24,15,4.26a15.87,15.87,0,0,1,4,10.77c.16,10.79.06,21.59.05,32.38A10,10,0,0,1,239.25,210.6Z"/><path class="cls-1" d="M166.46,163.15c2.25-.58,15.68-.63,17.93-.15.49,1.71.67,43.83.2,47.12-1.74.62-15.36.73-18.05.07v-5.62c-.66.67-.94.9-1.15,1.18-3.09,4-7.29,5.78-12.26,6-3.32.12-6.56-.13-9.54-1.78-5.07-2.82-7.27-7.42-7.83-13a44.92,44.92,0,0,1-.17-4.79q0-13.06,0-26.15v-2.76c2-.75,15.92-.83,18.5-.11v27.44c0,.64,0,1.28,0,1.92.19,3.07,1.58,4.72,4.49,5.34a6.21,6.21,0,0,0,6.75-2.94,10.77,10.77,0,0,0,1.13-5.33q0-11.86,0-23.75Z"/><path class="cls-1" d="M495.93,194.38a17.38,17.38,0,0,1-6.27,12.1,23.92,23.92,0,0,1-13.24,5,41.38,41.38,0,0,1-14.28-.8c-10.65-2.72-17.37-11.3-17.46-22.34,0-4,.12-8,1.75-11.75a23,23,0,0,1,13.78-13.18c8-2.85,16-2.88,23.72.9,6.5,3.18,10,8.67,11.43,15.64a47,47,0,0,1,.4,10.73c-1.06.08-2,.2-2.91.2q-13.32,0-26.63,0H463.4a7.9,7.9,0,0,0,6.21,8c4.2.91,7.28-.56,9.47-4.6ZM478,180.77c-.27-4.76-2.9-7.43-7-7.36a7.39,7.39,0,0,0-7.36,7.36Z"/><path class="cls-1" d="M325.15,212.05a32,32,0,0,1-14.58-3.71A21.56,21.56,0,0,1,299,191.17c-.63-5.13-.39-10.24,1.78-15a23.2,23.2,0,0,1,16.63-13.57c7.63-1.82,15.1-1.41,22.13,2.32a21.87,21.87,0,0,1,11.9,16.47,29.19,29.19,0,0,1-.88,13.95c-2.66,8.15-8.41,13.05-16.46,15.3A77.84,77.84,0,0,1,325.15,212.05Zm-8.21-25.69a22.82,22.82,0,0,0,1.58,7.56c1.32,3,3.75,4.23,6.89,4.22s5.45-1.31,6.59-4.25a19.58,19.58,0,0,0,.1-14.25c-1.12-3-3.45-4.42-6.69-4.42s-5.82,1.34-7,4.44A48.2,48.2,0,0,0,316.94,186.36Z"/><path class="cls-1" d="M384.84,162.67v12.46H376c-.07,1-.16,1.79-.16,2.55q0,7.2,0,14.39c0,3.89,1.34,5.18,5.23,5,1.18,0,2.35-.32,3.71-.52V210c-1.56,1.12-3.44,1.12-5.23,1.37a26.61,26.61,0,0,1-12.77-1,12.51,12.51,0,0,1-8.34-8.86,24.81,24.81,0,0,1-.9-6.12c-.12-5.75,0-11.51,0-17.26v-2.8l-5.26-.27V162.89l5.25-.39v-9.35c6.2-.12,12.07-.05,18.28-.05v9.57Z"/><path class="cls-1" d="M418.06,210.26a27.28,27.28,0,0,1-11.56,1.36,24.89,24.89,0,0,1-6.3-1.26c-6-2.12-8.73-6.85-9-12.87-.34-6.38-.17-12.78-.22-19.17,0-.94,0-1.89,0-3.07h-5.42V162.89l5.22-.36c.48-3,0-6,.3-8.93,1.88-.63,15.16-.74,18-.11v9.2c1.76,0,3.18,0,4.59,0s2.83.07,4.4.11v12.39h-8.77c-.08.95-.18,1.65-.18,2.35,0,4.48,0,9,0,13.43a16.29,16.29,0,0,0,.29,2.61c.45,2.62,1.52,3.54,4.22,3.52,1.41,0,2.83-.2,4.42-.33Z"/><path class="cls-1" d="M440.51,210.45H423.06c-.53-1.86-.71-64.1-.2-68,5.82-.11,11.68,0,17.49,0C440.88,144.38,441,207.16,440.51,210.45Z"/><path class="cls-1" d="M517.59,163.14v7c3.61-5.43,8.37-8.09,14.71-7.82.59,1.88.75,13.25.26,16.92-1,.07-2.09.21-3.16.21a16,16,0,0,0-6.78,1.25,7.92,7.92,0,0,0-5,7.73v21.71c-2,.63-15.52.73-18.08.22-.51-1.68-.71-43.44-.22-47.1C501,162.54,514.9,162.44,517.59,163.14Z"/></svg>