<svg xmlns="http://www.w3.org/2000/svg" viewBox="0 0 470.42 126.31">
  <defs>
    <style>
      .cls-1 {
        fill: #38003c;
      }
    </style>
  </defs>
  <title>Asset 91</title>
  <g id="Layer_2" data-name="Layer 2">
    <g id="Layer_1-2" data-name="Layer 1">
      <g>
        <path class="cls-1" d="M9.17,0c0,.79.1,1.37.1,2,0,5.62,0,11.24,0,16.86,0,2.56,1.48,4.07,3.85,4a3.21,3.21,0,0,0,3.4-3.31c0-1.39,0-2.78,0-4.17,0-.55,0-1.1,0-1.59,1.34-.4,6.84-.49,9.43-.18,0,.54.1,1.13.1,1.71,0,2.9,0,5.79,0,8.68a4.2,4.2,0,0,0,3.27,4.26,4,4,0,0,0,4.32-1.72,3.63,3.63,0,0,0-.18-4.63c-.32-.43-.73-.8-1.21-1.32a9,9,0,0,1,5.81-.26,4.37,4.37,0,0,1,3,3.72,15.32,15.32,0,0,1-3.9,13.25,19.89,19.89,0,0,1-8.77,5.56l-1.58.55v9.26c.39.27.77.5,1.11.78a4.46,4.46,0,0,1,1.82,3.42c.13,3.5.24,7,.34,10.49.12,4.16.22,8.33.34,12.49.1,3.33.2,6.66.33,10,.17,4.22.38,8.43.54,12.64.07,1.61.07,3.23.11,4.84.12,4.55.27,9.1.34,13.66,0,3.15-1.8,5-4.93,5-3.61,0-7.23,0-10.85,0-3,0-4.9-1.89-4.85-4.93.08-4.77.27-9.55.41-14.32.11-4,.24-8,.35-12,.12-4.39.22-8.78.34-13.16.1-3.28.21-6.55.33-9.83.18-5,.36-10,.57-15a4.09,4.09,0,0,1,2-3.47,1.89,1.89,0,0,0,1-1.9c-.05-2.33,0-4.67,0-7a1.33,1.33,0,0,0-1-1.52C8,40.26,3.53,35,1.34,27.9A26.2,26.2,0,0,1,4.74,4.51a35.86,35.86,0,0,1,3.53-4A4.26,4.26,0,0,1,9.17,0ZM21.42,109.31a5,5,0,0,0-5,5.09,5,5,0,0,0,10.05,0A5,5,0,0,0,21.42,109.31Z"/>
        <path class="cls-1" d="M182.83,56.78h17.85V82.39l.43.13,1-1.1a16.56,16.56,0,0,1,11.81-5.56,18.84,18.84,0,0,1,13.54,4.41,19.08,19.08,0,0,1,5.81,8.93,36.8,36.8,0,0,1-.5,24.86,18.53,18.53,0,0,1-17.68,12c-4-.08-7.6-.88-10.75-3.35-1.19-.93-2.31-2-3.49-3-.06,1.35-.13,3-.2,4.62-1.85.65-15,.78-17.68.22C182.5,122.86,182.32,60.54,182.83,56.78Zm33.76,43.7a40.18,40.18,0,0,0-1.15-6,7.06,7.06,0,0,0-7.34-5,7.3,7.3,0,0,0-6.89,5.34,19.28,19.28,0,0,0-.06,11.76,7.6,7.6,0,0,0,14.62-.34A57.6,57.6,0,0,0,216.59,100.48Z"/>
        <path class="cls-1" d="M176.82,124.86c-6,0-11.9.07-18.07,0v-2.91q0-11.86,0-23.75c0-.72,0-1.44,0-2.16-.22-3.09-1.67-4.9-4.46-5.42-2.2-.41-5.66.31-6.88,3.17a12.41,12.41,0,0,0-1,4.62c-.09,7.83,0,15.67,0,23.51v2.49c-2.31.68-16.08.68-18.18,0V77c6-.11,11.9-.05,18.06-.05v6.48c.78-.85,1.14-1.22,1.48-1.61A16.06,16.06,0,0,1,158,76.1c5.58-.77,10.9-.24,15,4.25a15.91,15.91,0,0,1,4,10.77c.16,10.8.06,21.59,0,32.39A9.69,9.69,0,0,1,176.82,124.86Z"/>
        <path class="cls-1" d="M104,77.41c2.25-.58,15.68-.62,17.93-.14.49,1.71.66,43.83.2,47.11-1.74.63-15.36.73-18,.07v-5.61A15.27,15.27,0,0,0,103,120c-3.09,4-7.29,5.79-12.26,6-3.32.13-6.56-.12-9.54-1.77-5.07-2.82-7.27-7.42-7.83-13a47.93,47.93,0,0,1-.18-4.79q0-13.08,0-26.15V77.55c2-.75,15.92-.84,18.5-.11v27.43c0,.64,0,1.28,0,1.92.19,3.08,1.58,4.72,4.49,5.35a6.23,6.23,0,0,0,6.75-2.94,10.8,10.8,0,0,0,1.13-5.33q0-11.88,0-23.75Z"/>
        <path class="cls-1" d="M433.5,108.64a17.38,17.38,0,0,1-6.27,12.1,23.88,23.88,0,0,1-13.24,5,41.38,41.38,0,0,1-14.28-.79c-10.66-2.72-17.37-11.31-17.46-22.34,0-4,.12-8,1.74-11.75a23,23,0,0,1,13.79-13.19c8-2.84,16-2.88,23.72.9,6.5,3.18,10,8.67,11.43,15.65a46.93,46.93,0,0,1,.4,10.72c-1.06.08-2,.21-2.91.21H401a7.88,7.88,0,0,0,6.21,8c4.2.92,7.28-.55,9.47-4.6ZM415.56,95c-.28-4.77-2.9-7.43-7-7.37A7.4,7.4,0,0,0,401.21,95Z"/>
        <path class="cls-1" d="M262.72,126.31a31.86,31.86,0,0,1-14.58-3.71,21.55,21.55,0,0,1-11.58-17.17c-.63-5.12-.39-10.23,1.78-15.05A23.22,23.22,0,0,1,255,76.81c7.63-1.82,15.1-1.41,22.13,2.33A21.83,21.83,0,0,1,289,95.6a29.23,29.23,0,0,1-.88,14c-2.66,8.15-8.41,13-16.46,15.3A75.7,75.7,0,0,1,262.72,126.31Zm-8.21-25.69a22.77,22.77,0,0,0,1.58,7.56c1.32,3,3.75,4.24,6.89,4.22s5.45-1.31,6.59-4.24a19.58,19.58,0,0,0,.1-14.25c-1.12-3-3.45-4.42-6.7-4.42s-5.81,1.34-7,4.44A47.74,47.74,0,0,0,254.51,100.62Z"/>
        <path class="cls-1" d="M322.41,76.93V89.39h-8.83c-.07,1-.16,1.79-.16,2.56q0,7.2,0,14.39c0,3.88,1.34,5.18,5.23,5,1.18,0,2.35-.32,3.71-.51v13.44c-1.56,1.12-3.44,1.13-5.23,1.38a26.61,26.61,0,0,1-12.77-1,12.51,12.51,0,0,1-8.34-8.86,24.87,24.87,0,0,1-.9-6.12c-.12-5.76,0-11.51,0-17.27v-2.8l-5.26-.27V77.15l5.25-.38V67.41c6.2-.11,12.07,0,18.28,0v9.57Z"/>
        <path class="cls-1" d="M355.63,124.53a27.28,27.28,0,0,1-11.56,1.36,25.34,25.34,0,0,1-6.3-1.26c-6-2.13-8.73-6.85-9-12.87-.34-6.38-.17-12.79-.22-19.18,0-.94,0-1.88,0-3.06h-5.42V77.16l5.22-.36c.48-3,0-6,.3-8.94,1.88-.63,15.16-.73,18.05-.1V77c1.76,0,3.18,0,4.59,0s2.83.06,4.4.1V89.45h-8.77c-.08,1-.18,1.66-.18,2.36,0,4.48,0,9,0,13.43a16.42,16.42,0,0,0,.29,2.61c.45,2.61,1.52,3.53,4.22,3.52,1.41,0,2.83-.21,4.42-.34Z"/>
        <path class="cls-1" d="M378.08,124.72H360.63c-.53-1.86-.71-64.11-.2-68,5.82-.11,11.68,0,17.49,0C378.45,58.64,378.59,121.42,378.08,124.72Z"/>
        <path class="cls-1" d="M455.16,77.41v7c3.61-5.43,8.37-8.09,14.71-7.82.59,1.88.75,13.25.26,16.91-1,.07-2.09.22-3.17.21a15.87,15.87,0,0,0-6.77,1.26,7.91,7.91,0,0,0-5,7.73v21.71c-2,.63-15.52.73-18.08.21-.51-1.68-.71-43.43-.22-47.1C438.57,76.81,452.47,76.7,455.16,77.41Z"/>
      </g>
    </g>
  </g>
</svg>
